<svg xmlns="http://www.w3.org/2000/svg" viewBox="0 0 960 560" role="img" aria-label="From Business Problems to Clear Requirements">
  <defs>
    <linearGradient id="bg" x1="80" y1="40" x2="880" y2="520" gradientUnits="userSpaceOnUse">
      <stop stop-color="#111018"/><stop offset=".48" stop-color="#09090C"/><stop offset="1" stop-color="#171020"/>
    </linearGradient>
    <linearGradient id="gold" x1="170" y1="90" x2="760" y2="450" gradientUnits="userSpaceOnUse">
      <stop stop-color="#F1DCA5"/><stop offset=".52" stop-color="#C9A76C"/><stop offset="1" stop-color="#8A60D0"/>
    </linearGradient>
    <radialGradient id="glow" cx="50%" cy="45%" r="55%">
      <stop stop-color="#A67FE6" stop-opacity=".22"/><stop offset=".42" stop-color="#C9A76C" stop-opacity=".12"/><stop offset="1" stop-color="#09090C" stop-opacity="0"/>
    </radialGradient>
    <filter id="soft"><feGaussianBlur stdDeviation="9"/></filter>
    <style>
      .line{fill:none;stroke:#C9A76C;stroke-width:3;stroke-linecap:round;stroke-linejoin:round;opacity:.72}
      .pline{fill:none;stroke:#A67FE6;stroke-width:2.4;stroke-linecap:round;stroke-linejoin:round;opacity:.58}
      .thin{fill:none;stroke:#EDE8DF;stroke-width:1.25;stroke-linecap:round;opacity:.22}
      .gold{fill:url(#gold)}.dark{fill:#121118;stroke:rgba(237,232,223,.12);stroke-width:1.4}
      .node{fill:#C9A76C;filter:drop-shadow(0 0 8px rgba(201,167,108,.5))}
      .pnode{fill:#A67FE6;filter:drop-shadow(0 0 10px rgba(166,127,230,.55))}
      .label{font-family:Inter,Arial,sans-serif;font-weight:700;letter-spacing:8px;font-size:20px;fill:#EDE8DF;opacity:.34}
    </style>
  </defs>
  <rect width="960" height="560" rx="38" fill="url(#bg)"/>
  <rect x="34" y="34" width="892" height="492" rx="30" fill="none" stroke="rgba(237,232,223,.09)"/>
  <circle cx="480" cy="270" r="250" fill="url(#glow)"/>
  <path class="thin" d="M105 120H330M630 120H855M105 440H330M630 440H855"/>
  
  <g>
    <rect class="dark" x="210" y="190" width="160" height="96" rx="22"/><rect class="dark" x="400" y="160" width="160" height="96" rx="22"/><rect class="dark" x="590" y="190" width="160" height="96" rx="22"/>
    <path class="line" d="M250 228h80M250 252h54M440 198h80M440 222h50M630 228h80M630 252h48"/>
    <path class="pline" d="M370 238C390 238 384 208 400 208M560 208C580 208 574 238 590 238"/>
    <path class="line" d="M480 264L566 350L480 436L394 350Z"/><path class="pline" d="M480 302L528 350L480 398L432 350Z"/>
    <path class="line" d="M444 350l24 24 52-58"/>
    <circle class="node" cx="370" cy="238" r="5"/><circle class="pnode" cx="590" cy="238" r="5"/>
    <text class="label" x="322" y="466">REQUIREMENTS</text>
  </g>
</svg>