<svg xmlns="http://www.w3.org/2000/svg" viewBox="0 0 60 40" width="60" height="40"><rect width="60" height="40" rx="6" fill="#b22234"/><g fill="#fff"><rect y="3.0769" width="60" height="3.0769"/><rect y="9.2308" width="60" height="3.0769"/><rect y="15.3846" width="60" height="3.0769"/><rect y="21.5385" width="60" height="3.0769"/><rect y="27.6923" width="60" height="3.0769"/><rect y="33.8462" width="60" height="3.0769"/></g><rect width="24" height="21.5385" rx="4" fill="#3c3b6e"/><g fill="#fff"><circle cx="3.5" cy="3.2" r="0.7"/><circle cx="6.8" cy="3.2" r="0.7"/><circle cx="10.1" cy="3.2" r="0.7"/><circle cx="13.399999999999999" cy="3.2" r="0.7"/><circle cx="16.7" cy="3.2" r="0.7"/><circle cx="20.0" cy="3.2" r="0.7"/><circle cx="3.5" cy="6.9" r="0.7"/><circle cx="6.8" cy="6.9" r="0.7"/><circle cx="10.1" cy="6.9" r="0.7"/><circle cx="13.399999999999999" cy="6.9" r="0.7"/><circle cx="16.7" cy="6.9" r="0.7"/><circle cx="20.0" cy="6.9" r="0.7"/><circle cx="3.5" cy="10.600000000000001" r="0.7"/><circle cx="6.8" cy="10.600000000000001" r="0.7"/><circle cx="10.1" cy="10.600000000000001" r="0.7"/><circle cx="13.399999999999999" cy="10.600000000000001" r="0.7"/><circle cx="16.7" cy="10.600000000000001" r="0.7"/><circle cx="20.0" cy="10.600000000000001" r="0.7"/><circle cx="3.5" cy="14.3" r="0.7"/><circle cx="6.8" cy="14.3" r="0.7"/><circle cx="10.1" cy="14.3" r="0.7"/><circle cx="13.399999999999999" cy="14.3" r="0.7"/><circle cx="16.7" cy="14.3" r="0.7"/><circle cx="20.0" cy="14.3" r="0.7"/><circle cx="3.5" cy="18.0" r="0.7"/><circle cx="6.8" cy="18.0" r="0.7"/><circle cx="10.1" cy="18.0" r="0.7"/><circle cx="13.399999999999999" cy="18.0" r="0.7"/><circle cx="16.7" cy="18.0" r="0.7"/><circle cx="20.0" cy="18.0" r="0.7"/></g></svg>